<svg viewBox="0 0 130 46" fill="none" xmlns="http://www.w3.org/2000/svg">
  <path d="M15.336 9.744q.768-1.248.768-2.08 0-1.28-1.76-1.28-.064 0-.064-.192T14.344 6l1.568.032q1.28.064 2.336.064.544 0 1.312-.064L20.744 6q.064 0 .064.192t-.064.192q-1.12 0-2.368.96t-2.24 2.56L11.4 17.392l-.608-.512zM4.52 9.104Q3.496 7.568 2.696 6.992q-.768-.608-1.664-.608-.096 0-.096-.192T1.032 6q.352 0 1.12.064l1.056.032q1.056 0 2.912-.064L7.976 6q.064 0 .064.192t-.064.192q-1.536 0-1.536.768 0 .352.384.896l5.184 7.776-2.016 1.472zm7.648 6.688v7.616q0 .991.16 1.44.192.448.704.608.544.16 1.696.16.096 0 .096.192t-.096.192q-.992 0-1.568-.032l-2.304-.032-2.24.032Q8.04 26 6.984 26q-.064 0-.064-.192t.064-.192q1.152 0 1.696-.16t.736-.608q.192-.48.192-1.44V16.08zm13.013 1.152h8.704l.224.704h-9.312zm16.16 8.672q.16 0 .16.192t-.16.192a42 42 0 0 1-1.889-.064 46 46 0 0 0-1.92-.064q-.735 0-1.823.064T34.076 26q-.127 0-.127-.192t.128-.192q1.088 0 1.568-.192.48-.224.48-.768t-.48-1.504l-6.88-14.304 1.023-1.536-6.24 14.464q-.447 1.088-.447 1.792 0 1.024.8 1.536.799.512 2.303.512.16 0 .16.192t-.16.192q-.576 0-1.663-.064a41 41 0 0 0-2.113-.064q-.832 0-1.983.064Q19.42 26 18.78 26q-.128 0-.128-.192t.128-.192q.897 0 1.505-.352.639-.352 1.215-1.216t1.313-2.56l6.816-15.712q.03-.096.223-.096.192-.032.224.096l7.68 15.84q1.12 2.335 1.856 3.168.768.832 1.728.832m11.402.768q-2.976 0-5.312-1.376a9.83 9.83 0 0 1-3.584-3.776q-1.248-2.4-1.248-5.216 0-3.296 1.664-5.632a10.4 10.4 0 0 1 4.256-3.552q2.624-1.185 5.344-1.184 3.04 0 5.344 1.44 2.304 1.408 3.52 3.744a10.4 10.4 0 0 1 1.248 4.96q0 2.912-1.536 5.344-1.536 2.431-4.128 3.84-2.559 1.408-5.568 1.408m1.12-.704q2.048 0 3.68-1.056t2.56-3.072q.96-2.048.96-4.864 0-2.976-1.056-5.312-1.023-2.336-2.976-3.648-1.92-1.312-4.48-1.312-3.327 0-5.184 2.272-1.856 2.24-1.856 6.208 0 3.04 1.056 5.504t2.944 3.872q1.92 1.408 4.352 1.408M79.4 6.64q-1.983 0-3.104 1.12-1.12 1.088-1.664 3.52-.032.064-.224.064-.16 0-.16-.096.129-.896.288-2.912.16-2.016.16-3.04 0-.16.192-.16t.192.16q0 .705 1.76.704 2.752.096 6.432.096 1.888 0 4-.064L89.447 6q1.185 0 1.728-.16.545-.16.704-.64.033-.128.192-.128.192 0 .192.128a77 77 0 0 0-.224 2.88 69 69 0 0 0-.096 3.168q0 .096-.192.096-.16 0-.16-.096-.225-2.464-1.28-3.52-1.056-1.088-3.136-1.088-1.184 0-1.696.16-.512.128-.704.544-.192.384-.192 1.312v14.752q0 .991.192 1.44.225.448.832.608.608.16 1.952.16.064 0 .064.192T87.56 26q-1.12 0-1.76-.032l-2.528-.032-2.464.032q-.64.032-1.792.032-.096 0-.096-.192t.096-.192q1.313 0 1.92-.16.64-.16.864-.608.225-.48.224-1.44V8.592q0-.896-.192-1.28-.192-.416-.736-.544-.511-.128-1.696-.128m18.935 2.944q0 1.215.608 2.144a6.9 6.9 0 0 0 1.472 1.568q.864.64 2.4 1.568 1.6.991 2.528 1.728a6.5 6.5 0 0 1 1.632 1.76q.672 1.056.672 2.496a5.1 5.1 0 0 1-.832 2.848q-.8 1.248-2.336 1.984-1.504.704-3.52.704a10 10 0 0 1-2.528-.32q-1.248-.288-2.176-.864a.56.56 0 0 1-.224-.224q-.063-.128-.064-.384l-.32-4.576q-.031-.128.128-.16.192-.032.224.096.768 2.432 2.144 4.128t3.584 1.696q1.505 0 2.528-.8 1.024-.832 1.024-2.688 0-1.408-.64-2.464a6.2 6.2 0 0 0-1.568-1.76q-.927-.735-2.464-1.664a40 40 0 0 1-2.4-1.632 6.7 6.7 0 0 1-1.472-1.696q-.608-1.024-.608-2.368 0-1.632.864-2.784a5.26 5.26 0 0 1 2.304-1.696 8 8 0 0 1 3.008-.576q2.112 0 3.872.736.48.224.48.576l.16 4q0 .128-.192.16-.159 0-.192-.128-.352-1.728-1.504-3.264-1.12-1.536-3.232-1.536-1.599 0-2.496.96-.864.96-.864 2.432m25.377.16q.768-1.248.768-2.08 0-1.28-1.76-1.28-.064 0-.064-.192T122.72 6l1.568.032a47 47 0 0 0 2.336.064q.544 0 1.312-.064L129.119 6q.064 0 .064.192t-.064.192q-1.12 0-2.368.96t-2.24 2.56l-4.736 7.488-.608-.512zm-10.816-.64q-1.025-1.536-1.824-2.112-.768-.608-1.664-.608-.096 0-.096-.192t.096-.192q.352 0 1.12.064l1.056.032q1.056 0 2.912-.064L116.351 6q.064 0 .064.192t-.064.192q-1.536 0-1.536.768 0 .352.384.896l5.184 7.776-2.016 1.472zm7.648 6.688v7.616q0 .991.16 1.44.192.448.704.608.544.16 1.696.16.096 0 .096.192t-.096.192q-.992 0-1.568-.032l-2.304-.032-2.24.032q-.576.032-1.632.032-.064 0-.064-.192t.064-.192q1.152 0 1.696-.16t.736-.608q.192-.48.192-1.44V16.08zM10.38 41.81q0 .448.098.658.098.195.378.28.294.084.91.084.042 0 .042.084t-.042.084q-.504 0-.77-.014l-1.036-.014-.826.014q-.238.015-.644.014-.028 0-.028-.084t.028-.084q.462 0 .672-.07a.42.42 0 0 0 .28-.266q.084-.21.084-.63v-4.284q0-.42-.084-.616a.42.42 0 0 0-.294-.266q-.21-.084-.658-.084-.028 0-.028-.084t.028-.084l.63.014q.532.028.826.028.238 0 .448-.014.224-.015.378-.028a9 9 0 0 1 .812-.042q2.31 0 2.31 1.708 0 .672-.35 1.134a2.06 2.06 0 0 1-.868.672 2.7 2.7 0 0 1-1.078.224q-.378 0-.616-.056-.042 0-.042-.07 0-.112.084-.112.21.042.434.042.616 0 1.036-.392.434-.406.434-1.162 0-.882-.462-1.33-.448-.462-1.218-.462-.364 0-.532.056t-.252.266-.084.686zm13.4-4.2q0-.42-.083-.616a.46.46 0 0 0-.294-.294q-.21-.084-.658-.084-.042 0-.042-.084t.042-.084l.616.014q.504.028.854.028.308 0 .84-.028l.63-.014q.042 0 .042.084t-.042.084q-.462 0-.686.084a.46.46 0 0 0-.294.266q-.084.196-.084.616v4.284q0 .42.084.63.084.196.294.266.224.07.686.07.042 0 .042.084t-.042.084q-.391 0-.63-.014l-.84-.014-.854.014q-.225.015-.616.014-.042 0-.042-.084t.042-.084q.462 0 .672-.07a.42.42 0 0 0 .28-.266q.084-.21.084-.63zm-4.38 1.96h4.746v.252H19.4zm-.378-1.988q0-.42-.084-.616a.42.42 0 0 0-.294-.266q-.21-.084-.672-.084-.028 0-.028-.084t.028-.084l.63.014q.532.028.826.028.35 0 .882-.028l.602-.014q.027 0 .028.084 0 .084-.028.084-.448 0-.672.084a.5.5 0 0 0-.308.294q-.07.196-.07.616v4.256q0 .435.07.63.084.196.294.266t.686.07q.027 0 .028.084 0 .084-.028.084-.393 0-.616-.014l-.868-.014-.826.014q-.238.015-.644.014-.028 0-.028-.084t.028-.084q.462 0 .672-.07a.47.47 0 0 0 .308-.266q.084-.21.084-.63zm14.005 5.586q-.98 0-1.75-.462A3.2 3.2 0 0 1 30.1 41.46a3.5 3.5 0 0 1-.42-1.694q0-1.092.56-1.876a3.67 3.67 0 0 1 1.442-1.204 4.25 4.25 0 0 1 1.792-.406q.98 0 1.722.49.755.476 1.148 1.246.406.77.406 1.61a3.33 3.33 0 0 1-.504 1.764 3.8 3.8 0 0 1-1.358 1.302q-.855.476-1.862.476m.364-.294q1.092 0 1.736-.77.657-.77.658-2.128 0-.938-.336-1.708a2.86 2.86 0 0 0-.952-1.232q-.63-.462-1.498-.462-1.12 0-1.736.756-.616.742-.616 2.086 0 .966.322 1.75.336.784.952 1.246.63.462 1.47.462m8.966-6.244q-.532 0-.84.154a1.04 1.04 0 0 0-.49.49q-.167.35-.266.994 0 .028-.084.028-.07 0-.07-.028.041-.322.098-1.036.056-.714.056-1.092 0-.07.084-.07t.084.07q0 .181.21.238.21.042.518.042 1.232.028 2.114.028l1.218-.014q.252-.014.658-.014.504 0 .742-.056a.43.43 0 0 0 .308-.28q.028-.042.098-.042t.07.042a45 45 0 0 0-.084 2.184q0 .028-.084.028-.07 0-.07-.028-.014-.63-.154-.98a.87.87 0 0 0-.434-.504q-.308-.154-.854-.154-.602 0-.812.196-.196.181-.196.756v4.284q0 .435.084.63a.47.47 0 0 0 .322.266q.252.07.798.07.042 0 .042.084T45.38 43q-.435 0-.672-.014l-.98-.014-.938.014q-.252.015-.7.014-.028 0-.028-.084t.028-.084q.532 0 .784-.07t.336-.266q.098-.21.098-.63v-4.312q0-.406-.07-.588a.38.38 0 0 0-.252-.266q-.195-.07-.63-.07m11.695 6.538q-.98 0-1.75-.462a3.2 3.2 0 0 1-1.176-1.246 3.5 3.5 0 0 1-.42-1.694q0-1.092.56-1.876a3.67 3.67 0 0 1 1.442-1.204 4.25 4.25 0 0 1 1.792-.406q.98 0 1.722.49.756.476 1.148 1.246.405.77.406 1.61a3.33 3.33 0 0 1-.504 1.764 3.8 3.8 0 0 1-1.358 1.302q-.855.476-1.862.476m.364-.294q1.092 0 1.736-.77.658-.77.658-2.128 0-.938-.336-1.708a2.86 2.86 0 0 0-.952-1.232q-.63-.462-1.498-.462-1.12 0-1.736.756-.615.742-.616 2.086 0 .966.322 1.75.336.784.952 1.246.63.462 1.47.462m11.024.294q-1.12 0-1.96-.462a3.3 3.3 0 0 1-1.694-2.87q0-1.092.49-1.89a3.1 3.1 0 0 1 1.4-1.232q.91-.434 2.142-.434.589 0 1.12.112.533.112.896.322.084.042.098.112a.8.8 0 0 1 .042.196l.14 1.316q0 .042-.084.056-.069 0-.084-.042-.308-.966-.924-1.414-.615-.448-1.54-.448-1.232 0-1.974.854-.742.84-.742 2.31 0 .966.364 1.722a2.9 2.9 0 0 0 1.05 1.162q.687.42 1.596.42.7 0 1.022-.126a.71.71 0 0 0 .448-.476q.126-.364.126-1.12 0-.364-.084-.504-.07-.154-.322-.196-.237-.056-.854-.056-.084 0-.084-.112 0-.042.014-.07.029-.042.056-.042.729.056 1.47.056.337 0 1.12-.028.029 0 .042.042.028.028.028.056 0 .098-.07.098-.28-.014-.392.042t-.14.238a4.4 4.4 0 0 0-.028.616q0 .63.028.882t.028.35q0 .084-.028.112a.6.6 0 0 1-.126.056q-.924.392-2.59.392m10.08-.336q.027 0 .027.084t-.028.084a10 10 0 0 1-.602-.014l-.882-.014-.826.014q-.237.015-.644.014-.028 0-.028-.084t.028-.084q.462 0 .672-.07a.47.47 0 0 0 .308-.266q.084-.21.084-.63v-4.284q0-.42-.084-.616a.42.42 0 0 0-.294-.266q-.21-.084-.672-.084-.028 0-.028-.084t.028-.084l.644.014q.504.028.812.028.252 0 .462-.014.225-.015.378-.028.448-.042.826-.042.91 0 1.386.35t.476 1.008q0 .574-.336 1.064a2.4 2.4 0 0 1-.924.784q-.588.28-1.288.28a4.6 4.6 0 0 1-.77-.056l-.014-.28q.351.098.882.098.868 0 1.204-.378.35-.392.35-1.134 0-1.54-1.33-1.54-.531 0-.7.224-.154.224-.154.784v4.256q0 .435.07.63.07.196.28.266t.686.07m4.157 0q.028 0 .028.084t-.028.084h-1.638q-.252 0-.91-.868-.657-.868-1.568-2.38l.742-.294q.813 1.33 1.358 2.044t1.008 1.022q.477.308 1.008.308m5.51-3.304h2.547l.098.252h-2.87zm5.137 3.304q.056 0 .056.084t-.056.084q-.252 0-.812-.028a18 18 0 0 0-.812-.028q-.224 0-.588.028-.365.028-.56.028-.056 0-.056-.084t.056-.084q.378 0 .546-.084.182-.098.182-.322 0-.195-.182-.602l-2.128-4.592.364-.308-1.75 4.354q-.225.532-.224.882 0 .364.252.518t.77.154q.07 0 .07.084t-.07.084q-.21 0-.574-.028a10 10 0 0 0-.728-.028q-.35 0-.826.028-.42.028-.672.028-.07 0-.07-.084t.07-.084q.434 0 .686-.112.252-.126.462-.476.225-.35.532-1.092l2.016-4.914q.028-.056.084-.056.055 0 .07.056l2.254 4.844q.364.784.574 1.134.225.35.448.49.238.126.616.126m5.416-1.022q0 .448.098.658.099.195.378.28.294.084.91.084.042 0 .042.084t-.042.084q-.504 0-.77-.014l-1.036-.014-.826.014q-.237.015-.644.014-.028 0-.028-.084t.028-.084q.462 0 .672-.07a.42.42 0 0 0 .28-.266q.084-.21.084-.63v-4.284q0-.42-.084-.616a.42.42 0 0 0-.294-.266q-.21-.084-.658-.084-.028 0-.028-.084t.028-.084l.63.014q.532.028.826.028.238 0 .448-.014.225-.015.378-.028.449-.042.812-.042 2.31 0 2.31 1.708 0 .672-.35 1.134a2.07 2.07 0 0 1-.868.672 2.7 2.7 0 0 1-1.078.224q-.378 0-.616-.056-.042 0-.042-.07 0-.112.084-.112.21.042.434.042.616 0 1.036-.392.435-.406.434-1.162 0-.882-.462-1.33-.447-.462-1.218-.462-.364 0-.532.056t-.252.266-.084.686zm13.401-4.2q0-.42-.084-.616a.46.46 0 0 0-.294-.294q-.21-.084-.658-.084-.042 0-.042-.084t.042-.084l.616.014q.504.028.854.028.309 0 .84-.028l.63-.014q.042 0 .042.084t-.042.084q-.462 0-.686.084a.46.46 0 0 0-.294.266q-.084.196-.084.616v4.284q0 .42.084.63.084.196.294.266.225.07.686.07.042 0 .042.084t-.042.084q-.391 0-.63-.014l-.84-.014-.854.014q-.223.015-.616.014-.042 0-.042-.084t.042-.084q.462 0 .672-.07a.42.42 0 0 0 .28-.266q.084-.21.084-.63zm-4.382 1.96h4.746v.252h-4.746zm-.378-1.988q0-.42-.084-.616a.42.42 0 0 0-.294-.266q-.21-.084-.672-.084-.028 0-.028-.084t.028-.084l.63.014q.532.028.826.028.351 0 .882-.028l.602-.014q.028 0 .028.084t-.028.084q-.447 0-.672.084a.5.5 0 0 0-.308.294q-.07.196-.07.616v4.256q0 .435.07.63.084.196.294.266t.686.07q.028 0 .028.084t-.028.084q-.391 0-.616-.014l-.868-.014-.826.014q-.237.015-.644.014-.028 0-.028-.084t.028-.084q.462 0 .672-.07a.47.47 0 0 0 .308-.266q.084-.21.084-.63zm14.915.28q.238-.434.238-.714a.5.5 0 0 0-.154-.392q-.154-.14-.434-.14-.028 0-.028-.084t.028-.084l.588.014q.448.028.854.028.196 0 .476-.028l.406-.014q.042 0 .042.084t-.042.084q-.448 0-.896.336-.433.323-.798.924l-1.484 2.492-.168-.112zm-3.276-.252q-.35-.546-.658-.77a1.2 1.2 0 0 0-.728-.224q-.028 0-.028-.084t.028-.084l.448.014q.307.028.462.028.42 0 1.064-.028l.7-.014q.028 0 .028.084t-.028.084q-.308 0-.476.084t-.168.238q0 .112.126.308l1.624 2.492-.602.616zm2.422 2.072v2.184q0 .435.084.63a.47.47 0 0 0 .322.266q.252.07.798.07.042 0 .042.084t-.042.084q-.434 0-.672-.014l-.966-.014-.91.014q-.266.015-.728.014-.042 0-.042-.084t.042-.084q.532 0 .784-.07t.336-.266q.098-.21.098-.63v-2.058z" fill="currentColor"/>
</svg>
